<?xml version="1.0" encoding="UTF-8"?>
<svg id="Capa_1" data-name="Capa 1" xmlns="http://www.w3.org/2000/svg" viewBox="0 0 2048 2048">
  <defs>
    <style>
      .cls-1 {
        fill: #0090e4;
      }

      .cls-2 {
        fill: #fff;
      }

      .cls-3 {
        fill: #fefefe;
      }
    </style>
  </defs>
  <path class="cls-2" d="M701.41,1473.55c-42.08-55.4-89.94-127.67-125.42-186.01-101.97-167.67-189.36-346.93-158.74-548.32,23.67-155.71,104.01-286.61,228.93-381.34,132.41-99.97,299.14-143.2,463.44-120.15,162.35,21.94,309.36,107.42,408.75,237.66,94.13,122.79,134.76,278.35,112.72,431.49-22.57,160.07-116.05,325.5-203.82,459.21-28.78,43.85-60.32,89.86-93.07,130.64-6.85,10.95-16.56,26.77-24.45,36.53-42.61,55.48-87.72,108.99-135.2,160.36-31.62,34.32-64.39,69.36-100.86,98.6-13.83,11.1-33.08,26.33-51.88,23.84-60.73-8.04-237.11-229.27-280.64-286.47-10.21-9.74-33.56-43.59-39.76-56.04Z"/>
  <path class="cls-2" d="M701.41,1473.55c71.21,31.91,127.29,22.19,198.3-4.94,115.44-44.1,230.38-114.56,356.87-57.57,30.21,13.62,61.35,37.92,73.47,69.86,1.95,5.15,3.29,10.38,4.15,15.82-6.85,10.95-16.56,26.77-24.45,36.53-42.61,55.48-87.72,108.99-135.2,160.36-31.62,34.32-64.39,69.36-100.86,98.6-13.83,11.1-33.08,26.33-51.88,23.84-60.73-8.04-237.11-229.27-280.64-286.47-10.21-9.74-33.56-43.59-39.76-56.04Z"/>
  <path d="M701.41,1473.55c71.21,31.91,127.29,22.19,198.3-4.94,115.44-44.1,230.38-114.56,356.87-57.57,30.21,13.62,61.35,37.92,73.47,69.86,1.95,5.15,3.29,10.38,4.15,15.82-6.85,10.95-16.56,26.77-24.45,36.53-13.05.74-29.37,2.6-41.59,7.11-23.52,8.68-46.61,23.76-72.36,24.64-8.6.14-23.97-.94-30.14-8.3-15.27-18.2-7.14-38.34,7.35-52.47,28.2-27.5,61.04-30.13,98.02-29.76-187.37-120.82-346.08,116.87-529.86,55.11-10.21-9.74-33.56-43.59-39.76-56.04Z"/>
  <path d="M1009.11,547.45c30.92-4.67,66.21,4.5,92.05,23.45,48.93,35.88,68.68,91.52,66.15,150.91-.61,14.27-8.14,41.97-6.44,52.97,2.96,3.54,3.79,3.34,8.18,4.77,23.59-5.46,24.02-99.63,24.83-120.93l-1.73-.35-2.88-.62c-10.38-2.19-16.92-3.47-20.7-15.12-2.95-9.09-11.75-25.54-7.91-34.58,10.71-7.83,78.78,6.06,89.28,13.22,3.18,8.02-7.07,35.13-10.24,43.69l-16.92.15.09,59.79c27.51,17.93,59.97,39.86,71.73,73.39,24.89,70.97,5.88,157.88,3.93,231.79-.32,12.27-2.23,30.18-4.23,41.69-1.8,10.58-4.82,20.92-9.01,30.8-14.64,34.08-47,50.63-79.36,63.75-2.2,15.68-5,58.18-12.28,68.03-4.4,5.95-10.98,9.91-18.3,11.02-4.61-1.46-8.18-4.22-8.05-9.52,2.23-87.7,17.45-179.64,3.93-267-10.45-67.51-68.78-86.1-127.58-92.92-83.46-2.62-162.43,18.35-168.31,114.92-5.05,82.82,4.59,164.71,8.11,247.26.13,3.04-2.46,4.34-4.47,5.76-35.04,3.67-32.09-52.66-34.85-78.11-85.47-35.64-89.05-66.29-95.15-154.69-4.2-60.88-12.59-123.49-2.48-184.51,8.75-52.8,38.57-74.25,79.96-101.7.3-19.82.2-39.65-.28-59.47l-17.48-1.33c-4.58-11.59-8.87-31.5-11.25-43.9,14.28-6.02,67.57-16.75,83.89-14.4,19.02,2.74-1.36,38.33-6.63,48.56-6.36,1.88-13.45,3.46-19.95,5.05,2.3,22.55,2.89,111.42,23.82,120.1,4.92,0,4.61-.23,8.8-3,3.5-7.74-1.67-25.63-3.06-34.58-13.91-89.79,32.3-178.38,124.79-194.36Z"/>
  <path class="cls-1" d="M1009.68,610.98c57.88-8.23,111.43,32.13,119.49,90.03,8.05,57.91-32.46,111.34-90.39,119.22-57.68,7.85-110.84-32.46-118.86-90.12-8.02-57.66,32.13-110.94,89.76-119.13Z"/>
  <path class="cls-3" d="M1018.92,648.29c36.99-3,69.46,24.44,72.66,61.42,3.2,36.98-24.07,69.59-61.02,73-37.25,3.43-70.17-24.1-73.4-61.36-3.23-37.26,24.48-70.03,61.76-73.06Z"/>
  <path class="cls-1" d="M1006.44,922.35c24.86-2.32,57.84-1.01,79.32,12.82,36.84,23.71,32.54,74.44,32.58,111.84l1.86,82,.04,88.16c-.04,64.49,6.27,126.37-72.12,141.82-26.9,2.7-59.07,2.13-82.13-13.65-39.11-26.78-34.19-76.38-34.13-117.29v-91.86l-.06-93.65c.03-65.85-3.73-108.02,74.63-120.19Z"/>
  <path d="M654.86,477.42c14.37-1.22,93.39-3.28,106.62,4.69,7.26,4.37,6.18,28.89,6.17,38.48,19.66,3.3,40.15,4.13,59.57,7.83,30.99,5.91,26.35,41.75,26.27,66.2-9.54,4.2-17.58,7.21-27.21,3.85-4.57-4.57-3.17-3.3-4.95-10.55-1.5-13.51-2.23-27.16-19.81-28.94-10.58-1.07-21.8-1.25-32.46-1.85-6.12,8.71-9.45,12.88-23.17,11.71-53.72-4.58-152.05,21.39-119.6-72.42,3.37-9.76,18.81-16.38,28.58-18.99Z"/>
  <path d="M1292.81,477.16c23.96.11,47.98-.37,71.92-.4,18.11-.03,36.85-.92,51.31,12.06,17.64,15.72,16.99,52.28.08,68.17-12.46,12.22-30.16,11.95-46.48,11.76-27.12-.33-54.34-.06-81.5-1.07-3.89-2.96-6.28-6.92-9.17-10.92-9.73.62-39.18,1.22-46,7.19-9.71,8.49,1.88,26.29-10.92,36.04-37.4,7.3-28.55-45.49-17.91-62.14,7.51-11.74,60.77-15.34,76.22-17.52-.11-17.88-3.67-32.32,12.45-43.17Z"/>
  <path d="M767.31,624.79c16-3.28,19.65,3.78,24.35,17.29,12.25,35.22-22.74,34.35-50.42,39.88-26.92,5.38-53.88,10.61-80.86,15.68-31.68,4.65-35.29-41.55-11.67-47.73,38.41-10.06,79.47-17.63,118.6-25.11Z"/>
  <path d="M1268.65,623.99c21.94-1.95,72.54,15.35,96.25,17.56,7.7.72,26.74,5.64,34.24,8.3,22.2,7.88,21.24,32.8,2.88,45.89-1.56.51-3.11,1.05-4.7,1.43-10.24,2.47-128.56-21.13-136.62-27.37-4.48-3.47-5.86-10.35-5.69-15.66.37-11.61,5.1-22.45,13.65-30.16Z"/>
</svg>