<?xml version="1.0" encoding="UTF-8"?>
<svg id="Capa_1" data-name="Capa 1" xmlns="http://www.w3.org/2000/svg" viewBox="0 0 2048 2048">
  <defs>
    <style>
      .cls-1 {
        fill: #0090e4;
      }

      .cls-2 {
        fill: #fff;
      }

      .cls-3 {
        fill: #fefefe;
      }
    </style>
  </defs>
  <path class="cls-2" d="M855.17,1146.56c-22.57-29.71-48.23-68.47-67.26-99.75-54.69-89.92-101.55-186.05-85.13-294.05,12.69-83.5,55.78-153.7,122.77-204.5,71.01-53.61,160.42-76.79,248.53-64.43,87.06,11.77,165.9,57.6,219.2,127.45,50.48,65.85,72.27,149.27,60.45,231.4-12.11,85.84-62.23,174.55-109.3,246.26-15.44,23.52-32.35,48.19-49.91,70.06-3.68,5.87-8.88,14.36-13.11,19.59-22.85,29.75-47.04,58.45-72.5,86-16.96,18.41-34.53,37.19-54.09,52.88-7.42,5.95-17.74,14.12-27.82,12.79-32.57-4.31-127.16-122.95-150.5-153.63-5.47-5.22-18-23.38-21.32-30.05Z"/>
  <path class="cls-2" d="M855.17,1146.56c38.19,17.11,68.26,11.9,106.34-2.65,61.91-23.65,123.55-61.44,191.38-30.87,16.2,7.3,32.9,20.34,39.4,37.47,1.05,2.76,1.76,5.57,2.23,8.48-3.68,5.87-8.88,14.36-13.11,19.59-22.85,29.75-47.04,58.45-72.5,86-16.96,18.41-34.53,37.19-54.09,52.88-7.42,5.95-17.74,14.12-27.82,12.79-32.57-4.31-127.16-122.95-150.5-153.63-5.47-5.22-18-23.38-21.32-30.05Z"/>
  <path d="M855.17,1146.56c38.19,17.11,68.26,11.9,106.34-2.65,61.91-23.65,123.55-61.44,191.38-30.87,16.2,7.3,32.9,20.34,39.4,37.47,1.05,2.76,1.76,5.57,2.23,8.48-3.68,5.87-8.88,14.36-13.11,19.59-7,.4-15.75,1.4-22.3,3.81-12.61,4.65-25,12.74-38.8,13.21-4.61.07-12.85-.5-16.16-4.45-8.19-9.76-3.83-20.56,3.94-28.14,15.12-14.75,32.73-16.16,52.57-15.96-100.48-64.79-185.59,62.67-284.15,29.55-5.47-5.22-18-23.38-21.32-30.05Z"/>
  <path d="M1020.18,649.91c16.58-2.5,35.5,2.41,49.36,12.58,26.24,19.24,36.83,49.08,35.47,80.93-.33,7.65-4.37,22.51-3.45,28.41,1.59,1.9,2.03,1.79,4.39,2.56,12.65-2.93,12.88-53.43,13.32-64.85l-.93-.19-1.55-.34c-5.57-1.17-9.07-1.86-11.1-8.11-1.58-4.88-6.3-13.7-4.24-18.54,5.74-4.2,42.25,3.25,47.88,7.09,1.71,4.3-3.79,18.84-5.49,23.43l-9.07.08.05,32.07c14.75,9.62,32.16,21.37,38.47,39.36,13.35,38.06,3.15,84.67,2.11,124.3-.17,6.58-1.19,16.19-2.27,22.36-.97,5.67-2.59,11.22-4.83,16.52-7.85,18.28-25.2,27.15-42.56,34.19-1.18,8.41-2.68,31.2-6.59,36.48-2.36,3.19-5.89,5.31-9.81,5.91-2.47-.78-4.39-2.26-4.31-5.11,1.2-47.03,9.36-96.34,2.11-143.18-5.6-36.21-36.89-46.18-68.42-49.83-44.76-1.41-87.11,9.84-90.26,61.63-2.71,44.42,2.46,88.33,4.35,132.6.07,1.63-1.32,2.33-2.4,3.09-18.79,1.97-17.21-28.24-18.69-41.89-45.84-19.11-47.76-35.55-51.03-82.96-2.25-32.65-6.75-66.23-1.33-98.95,4.69-28.32,20.69-39.82,42.88-54.54.16-10.63.11-21.26-.15-31.89l-9.38-.71c-2.46-6.22-4.76-16.89-6.04-23.54,7.66-3.23,36.24-8.98,44.99-7.72,10.2,1.47-.73,20.56-3.55,26.04-3.41,1.01-7.21,1.85-10.7,2.71,1.23,12.1,1.55,59.75,12.78,64.4,2.64,0,2.47-.12,4.72-1.61,1.88-4.15-.9-13.75-1.64-18.54-7.46-48.15,17.32-95.66,66.92-104.23Z"/>
  <path class="cls-1" d="M1020.49,683.99c31.04-4.41,59.76,17.23,64.08,48.28,4.32,31.05-17.41,59.71-48.48,63.93-30.93,4.21-59.44-17.41-63.74-48.33-4.3-30.92,17.23-59.49,48.14-63.89Z"/>
  <path class="cls-3" d="M1025.44,703.99c19.84-1.61,37.25,13.11,38.97,32.94,1.72,19.83-12.91,37.32-32.72,39.15-19.97,1.84-37.63-12.92-39.36-32.9-1.73-19.98,13.13-37.56,33.12-39.18Z"/>
  <path class="cls-1" d="M1018.75,850.96c13.33-1.25,31.02-.54,42.54,6.87,19.76,12.72,17.45,39.92,17.47,59.98l1,43.98.02,47.28c-.02,34.58,3.36,67.77-38.68,76.05-14.43,1.45-31.68,1.14-44.04-7.32-20.97-14.36-18.33-40.96-18.3-62.9v-49.26l-.03-50.22c.02-35.31-2-57.93,40.02-64.45Z"/>
  <path d="M830.21,612.36c7.71-.65,50.08-1.76,57.18,2.51,3.89,2.34,3.32,15.49,3.31,20.63,10.54,1.77,21.53,2.21,31.94,4.2,16.62,3.17,14.13,22.39,14.09,35.5-5.12,2.25-9.43,3.87-14.59,2.06-2.45-2.45-1.7-1.77-2.65-5.66-.8-7.25-1.19-14.57-10.62-15.52-5.68-.57-11.69-.67-17.41-.99-3.28,4.67-5.07,6.91-12.43,6.28-28.81-2.46-81.54,11.47-64.14-38.84,1.81-5.23,10.09-8.79,15.33-10.18Z"/>
  <path d="M1172.32,612.22c12.85.06,25.73-.2,38.57-.21,9.71-.01,19.76-.49,27.52,6.47,9.46,8.43,9.11,28.03.04,36.56-6.68,6.56-16.17,6.41-24.93,6.3-14.54-.18-29.14-.03-43.7-.57-2.09-1.59-3.37-3.71-4.92-5.86-5.22.34-21.01.66-24.67,3.85-5.21,4.55,1.01,14.1-5.86,19.33-20.06,3.91-15.31-24.39-9.6-33.32,4.03-6.3,32.59-8.22,40.87-9.4-.06-9.59-1.97-17.33,6.68-23.15Z"/>
  <path d="M890.51,691.39c8.58-1.76,10.54,2.03,13.06,9.27,6.57,18.89-12.2,18.42-27.04,21.38-14.44,2.88-28.89,5.69-43.36,8.41-16.99,2.49-18.92-22.28-6.26-25.6,20.6-5.39,42.62-9.46,63.6-13.47Z"/>
  <path d="M1159.37,690.96c11.76-1.05,38.9,8.23,51.61,9.42,4.13.39,14.34,3.03,18.36,4.45,11.91,4.23,11.39,17.59,1.54,24.61-.83.27-1.67.56-2.52.77-5.49,1.32-68.94-11.33-73.27-14.68-2.4-1.86-3.14-5.55-3.05-8.4.2-6.23,2.74-12.04,7.32-16.18Z"/>
  <path class="cls-2" d="M891.22,1389.27c36.22-2.04,79.22,13.69,92.68,50.03,9.1,24.57,7.98,54.7-2.33,78.75-9.5,22.16-25.74,32.63-47.28,41.05-6.75,2.14-13.68,3.71-20.69,4.7-17.45,2.43-54.19,4.36-70.28-5.93-3.12-2-2.56-27.59-2.56-32.85l.02-41.41c0-14.21-2.6-70.32,2.39-83.11,3.18-8.17,37.24-10.31,48.05-11.21ZM886.94,1527c16.74,1.51,25.43,1.5,39.91-8.63,28.91-26.88,19.37-96.25-32.55-91.24-2.63.27-5.14.2-7.29,1.45-.49,5.43-.49,11.17-.4,16.64.43,27.16-.43,54.64.33,81.78Z"/>
  <path class="cls-2" d="M570.74,1389.24c7.41-.29,14.84,0,22.2.87,18.32,2.11,36.51,8.15,47.87,23.17,19.12,25.29,13.2,66.26-12.39,85.06-15.6,11.46-41.69,16.86-60.66,14.12l-.02,12.17c.06,7.19.86,28.25-1.01,34.41-5.31,7.27-44.72,6.64-44.77-1.6-.29-48.01.02-96.27.02-144.32,0-2.39.58-10.88,1.73-12.11,8.6-9.26,37.06-11.05,47.02-11.76ZM567.55,1478.15c10.07.73,18.18,1.34,27.16-4.57,21.27-20.72,7.89-51.2-24.47-47.12l-2.2.81c-1.38,4.54-.56,43.67-.49,50.88Z"/>
  <path class="cls-2" d="M1379.53,1394.71l.73-.09c3.68-.42,5.45-.74,8.41,1.59,3.13,6.16,1.01,80.35,1.36,94.67.26,10.68,1.08,60.43-.78,68.46-3.49,4.98-17.04,3.99-22.56,4.29-13.27.71-14.13-2.72-16.85-13.78-17.45,17.61-36.82,21.92-58.88,9.46-17.52-11.91-22.61-27.04-24.67-47.23-4.92-48.23,33.54-83.98,80.82-62.6.16-8.98-2.31-38.86,1.72-44.51,5.44-7.64,22.08-8.8,30.71-10.26ZM1329.31,1532.53c8.73-.98,13.23-3.18,18.04-10.78.02-16.28,6.87-46.14-14.41-45.95-1.31.02-2.62.05-3.92.1-7.07,2.15-12.49,5.14-15.64,12.09-7.88,17.38-5.07,40.05,15.94,44.53Z"/>
  <path class="cls-2" d="M1051.34,1440.33c34.91-5.84,67.93,17.77,73.69,52.7,5.76,34.92-17.93,67.89-52.87,73.56-34.82,5.66-67.65-17.93-73.39-52.74-5.74-34.81,17.78-67.69,52.57-73.52ZM1065.27,1531.26c22.62-6.2,21.74-35.83,10.04-51.27-6.29-3.1-8.17-4.01-15.43-3.98-6.12,1.65-11.69,4.05-14.46,10.12-8.24,18.03-5.39,46.13,19.84,45.13Z"/>
  <path class="cls-2" d="M710.43,1439.87c6.37-.08,12.74.43,19.02,1.53,48.79,8.84,33.97,51.41,37.67,86.28.28,5.4,10.89,4.61,11.49,8.02,5.03,28.44-14.11,33.16-37.44,28.99-7.15-1.28-11.6-6.69-14.72-11.98-18.55,14.58-40.08,18.26-61.28,6.67-11.97-8.15-17.68-22.33-14.87-36.52,1.99-10,7.93-18.78,16.48-24.33,16.39-10.83,38.9-10.76,57.42-6.71l-.39-12.41c-12.36-19.55-37.41-5.14-54.13-1.04l-.96.23c-3.88-3.59-8.48-10.89-9.33-16.1-3.22-19.64,38.25-21.6,51.04-22.63ZM713.19,1537.13c4.99-2.9,7.4-4.39,11.54-8.73-.06-4.56-.01-9.59-.38-14.1-7.02-.94-12.92-1.88-20.03-1.13-4.53,1.51-7.7,2.78-10.07,7.3-1.63,3.08-1.86,6.7-.64,9.96,1.3,3.36,3.97,6.01,7.34,7.28,4.25,1.65,7.99.54,12.23-.58Z"/>
  <path class="cls-2" d="M1460.78,1440.57c31.55-3.22,59.82,16.07,64.55,47.7,1.79,8.99,1.52,20.46-9.67,22.82-21.99,4.63-47.22,2.41-69.09,6.03,8.74,21.74,27.51,20.62,46.55,13.91,5.73-2.02,11.7-6.36,17.79-6.44,3.73,1.58,6.08,7.82,7.91,11.57,4.19,9.8,4.9,12.4-4.96,18.23-32.1,18.97-83.63,17.2-103.97-18.2-16.46-28.63-7.14-69.58,21.74-86.7,10.11-5.99,17.73-7.63,29.16-8.92ZM1445.51,1491.77c6.54-.24,15.68-1.5,21.28-1.45,5.81-.75,11.64-1.45,17.46-2.11-2.59-13.44-7.4-19.5-22.05-18.64-11.86,4.24-13.88,10.57-16.69,22.2Z"/>
  <path class="cls-2" d="M1211.12,1441.28c26.97-3.01,43.01,16.07,43.71,41.16.55,20.03-.16,40.57.4,60.55.61,21.54-.22,19.72-21.39,20.46-3.46.12-16.45.94-19.78-3.05-5.79-19.76,2.95-57.33-4.81-76.03-4.37-10.53-24.22-7.86-27.63,5.18-.28,11.37.54,62.43-1.11,69.92-4.98,5.9-34.46,5.44-40.99,1.17-3.83-9.96-.18-53.42-1.39-65.8-.48-4.87-.28-42.6.66-45.25,5.59-4.71,13.14-4.6,20.05-5.24,16.15-1.5,17.39-.22,20.3,14.97,10.98-10.3,16.42-15.57,31.96-18.03Z"/>
  <path class="cls-2" d="M789.74,1389.12c42.81-1.01,19.68,68.14-7.58,72.8l-.58-.23c-3.42-1.37-4.68-1.35-7.23-4.1-2.83-6.46,4.12-12.06,6.85-17.53,1.47-2.95,2.25-5.79,3.19-8.93-.6-.33-1.2-.67-1.79-1.02-19.39-11.42-16.79-36.42,7.15-41Z"/>
</svg>