<?xml version="1.0" encoding="UTF-8"?>
<svg id="Capa_1" data-name="Capa 1" xmlns="http://www.w3.org/2000/svg" viewBox="0 0 1024 307.71">
  <defs>
    <style>
      .cls-1 {
        fill: #222d4e;
      }
    </style>
  </defs>
  <path class="cls-1" d="M398.71,77.8c30.95-1.75,67.7,11.7,79.21,42.76,7.78,21,6.82,46.75-1.99,67.3-8.12,18.94-22,27.89-40.41,35.08-5.77,1.83-11.69,3.17-17.69,4.01-14.92,2.07-46.32,3.72-60.06-5.07-2.67-1.71-2.19-23.58-2.19-28.07l.02-35.39c0-12.15-2.22-60.1,2.04-71.03,2.72-6.98,31.82-8.81,41.07-9.58ZM395.06,195.5c14.31,1.29,21.73,1.28,34.11-7.37,24.71-22.97,16.55-82.26-27.82-77.98-2.25.23-4.4.17-6.23,1.24-.42,4.64-.41,9.55-.34,14.22.37,23.22-.37,46.7.28,69.89Z"/>
  <path class="cls-1" d="M124.42,77.77c6.33-.25,12.68,0,18.97.74,15.65,1.8,31.2,6.97,40.91,19.8,16.34,21.61,11.28,56.63-10.59,72.69-13.33,9.79-35.63,14.41-51.84,12.07l-.02,10.4c.05,6.15.73,24.15-.86,29.41-4.54,6.22-38.22,5.68-38.26-1.37-.25-41.03.01-82.28.02-123.34,0-2.04.5-9.3,1.48-10.35,7.35-7.91,31.68-9.44,40.18-10.05ZM122.1,153.76c8.6.63,15.54,1.14,23.21-3.91,18.18-17.71,6.74-43.76-20.92-40.27l-1.88.69c-1.18,3.88-.48,37.32-.42,43.48Z"/>
  <path class="cls-1" d="M816.05,82.45l.62-.08c3.14-.36,4.66-.63,7.19,1.36,2.68,5.26.86,68.67,1.16,80.91.22,9.13.93,51.64-.67,58.5-2.98,4.25-14.56,3.41-19.28,3.66-11.34.6-12.08-2.32-14.4-11.78-14.91,15.05-31.47,18.74-50.32,8.08-14.97-10.18-19.33-23.11-21.09-40.36-4.2-41.22,28.67-71.77,69.07-53.5.14-7.68-1.97-33.21,1.47-38.04,4.65-6.53,18.87-7.52,26.25-8.77ZM773.13,200.23c7.46-.84,11.31-2.72,15.42-9.21.02-13.91,5.87-39.44-12.32-39.27-1.12.01-2.24.04-3.35.09-6.04,1.83-10.68,4.4-13.37,10.33-6.73,14.86-4.33,34.22,13.62,38.06Z"/>
  <path class="cls-1" d="M535.57,121.44c29.84-4.99,58.05,15.19,62.97,45.04,4.92,29.85-15.32,58.02-45.18,62.87-29.76,4.84-57.82-15.33-62.72-45.08-4.91-29.75,15.19-57.85,44.93-62.83ZM547.47,199.15c19.33-5.3,18.58-30.63,8.58-43.82-5.37-2.65-6.98-3.43-13.19-3.4-5.23,1.41-9.99,3.46-12.36,8.65-7.04,15.41-4.61,39.42,16.96,38.57Z"/>
  <path class="cls-1" d="M244.22,121.04c5.45-.07,10.89.37,16.25,1.3,41.7,7.56,29.03,43.94,32.2,73.74.24,4.61,9.31,3.94,9.82,6.86,4.3,24.31-12.06,28.34-31.99,24.78-6.11-1.09-9.91-5.71-12.58-10.24-15.85,12.46-34.25,15.61-52.37,5.7-10.23-6.97-15.11-19.08-12.7-31.21,1.7-8.55,6.77-16.05,14.08-20.79,14.01-9.26,33.25-9.2,49.07-5.73l-.34-10.61c-10.57-16.71-31.98-4.39-46.26-.89l-.82.19c-3.32-3.06-7.24-9.31-7.98-13.76-2.75-16.78,32.69-18.46,43.62-19.34ZM246.58,204.16c4.27-2.48,6.33-3.75,9.86-7.46-.05-3.9,0-8.2-.33-12.05-6-.8-11.05-1.6-17.12-.97-3.87,1.29-6.58,2.38-8.6,6.24-1.39,2.63-1.59,5.73-.55,8.51,1.11,2.87,3.39,5.14,6.28,6.22,3.64,1.41,6.83.46,10.45-.5Z"/>
  <path class="cls-1" d="M885.49,121.64c26.96-2.75,51.13,13.73,55.17,40.77,1.53,7.69,1.3,17.49-8.26,19.5-18.8,3.96-40.35,2.06-59.05,5.15,7.47,18.58,23.51,17.62,39.78,11.89,4.9-1.73,10-5.43,15.2-5.5,3.18,1.35,5.2,6.68,6.76,9.89,3.58,8.38,4.18,10.6-4.24,15.58-27.44,16.21-71.47,14.7-88.86-15.56-14.06-24.47-6.1-59.46,18.58-74.1,8.64-5.12,15.15-6.52,24.92-7.62ZM872.44,165.4c5.59-.21,13.4-1.28,18.19-1.24,4.97-.64,9.94-1.24,14.92-1.8-2.21-11.49-6.32-16.66-18.84-15.93-10.14,3.63-11.86,9.03-14.27,18.97Z"/>
  <path class="cls-1" d="M672.13,122.25c23.05-2.57,36.76,13.73,37.35,35.17.47,17.12-.14,34.67.34,51.75.52,18.4-.19,16.85-18.28,17.48-2.96.1-14.06.8-16.9-2.61-4.95-16.89,2.52-49-4.11-64.98-3.74-9-20.7-6.72-23.61,4.43-.24,9.72.46,53.35-.95,59.75-4.26,5.04-29.45,4.65-35.03,1-3.27-8.51-.15-45.65-1.19-56.24-.41-4.16-.24-36.41.56-38.67,4.78-4.03,11.23-3.93,17.14-4.48,13.81-1.28,14.86-.19,17.35,12.79,9.39-8.81,14.04-13.3,27.32-15.41Z"/>
  <path class="cls-1" d="M311.99,77.67c36.59-.86,16.82,58.23-6.48,62.22l-.5-.19c-2.92-1.17-4-1.15-6.18-3.51-2.42-5.52,3.52-10.31,5.85-14.98,1.26-2.52,1.93-4.95,2.73-7.63-.51-.28-1.02-.58-1.53-.87-16.57-9.76-14.35-31.12,6.11-35.04Z"/>
</svg>