<?xml version="1.0" encoding="UTF-8"?>
<svg id="Capa_1" data-name="Capa 1" xmlns="http://www.w3.org/2000/svg" viewBox="0 0 1024 1024">
  <defs>
    <style>
      .cls-1 {
        fill: #0090e4;
      }

      .cls-2 {
        fill: #222d4e;
      }

      .cls-3 {
        fill: #fefefe;
      }

      .cls-4 {
        fill: #00a375;
      }
    </style>
  </defs>
  <path class="cls-1" d="M403.04,542.16c-14.28-18.8-30.52-43.32-42.56-63.12-34.6-56.89-64.25-117.72-53.86-186.06,8.03-52.84,35.29-97.25,77.68-129.4,44.93-33.92,101.5-48.59,157.25-40.77,55.09,7.45,104.97,36.45,138.7,80.64,31.94,41.67,45.73,94.45,38.25,146.41-7.66,54.31-39.38,110.45-69.16,155.82-9.77,14.88-20.47,30.49-31.58,44.33-2.33,3.72-5.62,9.09-8.29,12.4-14.46,18.83-29.77,36.98-45.88,54.41-10.73,11.65-21.85,23.53-34.22,33.46-4.69,3.77-11.22,8.93-17.6,8.09-20.61-2.73-80.46-77.8-95.23-97.21-3.46-3.3-11.39-14.79-13.49-19.01Z"/>
  <path class="cls-4" d="M403.04,542.16c24.16,10.83,43.19,7.53,67.29-1.67,39.17-14.96,78.17-38.87,121.09-19.53,10.25,4.62,20.82,12.87,24.93,23.71.66,1.75,1.11,3.52,1.41,5.37-2.33,3.72-5.62,9.09-8.29,12.4-14.46,18.83-29.77,36.98-45.88,54.41-10.73,11.65-21.85,23.53-34.22,33.46-4.69,3.77-11.22,8.93-17.6,8.09-20.61-2.73-80.46-77.8-95.23-97.21-3.46-3.3-11.39-14.79-13.49-19.01Z"/>
  <path class="cls-3" d="M403.04,542.16c24.16,10.83,43.19,7.53,67.29-1.67,39.17-14.96,78.17-38.87,121.09-19.53,10.25,4.62,20.82,12.87,24.93,23.71.66,1.75,1.11,3.52,1.41,5.37-2.33,3.72-5.62,9.09-8.29,12.4-4.43.25-9.97.88-14.11,2.41-7.98,2.95-15.82,8.06-24.55,8.36-2.92.05-8.13-.32-10.23-2.82-5.18-6.18-2.42-13.01,2.49-17.8,9.57-9.33,20.71-10.22,33.26-10.1-63.58-41-117.43,39.65-179.79,18.7-3.46-3.3-11.39-14.79-13.49-19.01Z"/>
  <path class="cls-3" d="M507.36,228.13c10.49-1.58,22.46,1.53,31.23,7.96,16.6,12.18,23.31,31.05,22.45,51.21-.21,4.84-2.76,14.24-2.19,17.98,1.01,1.2,1.29,1.13,2.78,1.62,8.01-1.85,8.15-33.81,8.43-41.03l-.59-.12-.98-.21c-3.52-.74-5.74-1.18-7.02-5.13-1-3.09-3.99-8.67-2.68-11.73,3.63-2.66,26.73,2.06,30.3,4.49,1.08,2.72-2.4,11.92-3.47,14.82l-5.74.05.03,20.29c9.33,6.08,20.35,13.52,24.34,24.9,8.45,24.08,2,53.57,1.33,78.65-.11,4.17-.76,10.24-1.43,14.15-.61,3.59-1.64,7.1-3.06,10.45-4.97,11.56-15.95,17.18-26.93,21.63-.75,5.32-1.7,19.74-4.17,23.09-1.49,2.02-3.73,3.36-6.21,3.74-1.57-.49-2.78-1.43-2.73-3.23.76-29.76,5.92-60.95,1.33-90.6-3.54-22.91-23.34-29.22-43.29-31.53-28.32-.89-55.11,6.23-57.11,38.99-1.71,28.1,1.56,55.89,2.75,83.9.04,1.03-.84,1.47-1.52,1.96-11.89,1.25-10.89-17.87-11.83-26.5-29-12.09-30.22-22.49-32.29-52.49-1.43-20.66-4.27-41.9-.84-62.61,2.97-17.92,13.09-25.19,27.13-34.51.1-6.73.07-13.45-.09-20.18l-5.93-.45c-1.55-3.93-3.01-10.69-3.82-14.9,4.84-2.04,22.93-5.68,28.47-4.89,6.45.93-.46,13.01-2.25,16.48-2.16.64-4.56,1.17-6.77,1.71.78,7.65.98,37.81,8.08,40.75,1.67,0,1.57-.08,2.99-1.02,1.19-2.63-.57-8.7-1.04-11.73-4.72-30.47,10.96-60.53,42.34-65.95Z"/>
  <path class="cls-1" d="M507.64,249.47c19.64-2.79,37.81,10.9,40.54,30.55,2.73,19.65-11.02,37.78-30.67,40.45-19.57,2.66-37.61-11.01-40.33-30.58-2.72-19.57,10.9-37.64,30.46-40.42Z"/>
  <path class="cls-3" d="M510.77,262.13c12.55-1.02,23.57,8.29,24.66,20.84,1.09,12.55-8.17,23.61-20.71,24.77-12.64,1.16-23.81-8.18-24.91-20.82-1.1-12.64,8.31-23.76,20.96-24.79Z"/>
  <path class="cls-3" d="M506.63,355.16c8.43-.79,19.61-.34,26.89,4.34,12.49,8.04,11.03,25.23,11.05,37.91v27.83s.02,30.18.02,30.18c-.01,21.65,2.1,42.42-24.21,47.6-9.03.91-19.83.71-27.57-4.58-13.13-8.99-11.47-25.63-11.46-39.37v-31.43l-.02-31.74c.01-22.32-1.27-36.61,25.3-40.74Z"/>
  <path class="cls-3" d="M387.24,204.15c4.88-.41,31.69-1.11,36.18,1.59,2.46,1.48,2.1,9.8,2.09,13.06,6.67,1.12,13.62,1.4,20.21,2.66,10.52,2.01,8.94,14.16,8.91,22.46-3.24,1.42-5.97,2.45-9.23,1.3-1.55-1.55-1.07-1.12-1.68-3.58-.51-4.59-.76-9.22-6.72-9.82-3.59-.36-7.4-.42-11.02-.63-2.08,2.95-3.21,4.37-7.86,3.97-18.23-1.55-51.59,7.26-40.58-24.57,1.14-3.31,6.38-5.56,9.7-6.44Z"/>
  <path class="cls-3" d="M603.71,204.07c8.13.04,16.28-.12,24.4-.14,6.15,0,12.5-.31,17.41,4.09,5.99,5.33,5.77,17.74.03,23.13-4.23,4.15-10.23,4.05-15.77,3.99-9.2-.11-18.44-.02-27.65-.36-1.32-1-2.13-2.35-3.11-3.71-3.3.21-13.29.41-15.61,2.44-3.29,2.88.64,8.92-3.71,12.23-12.69,2.48-9.69-15.43-6.08-21.08,2.55-3.98,20.62-5.2,25.86-5.94-.04-6.07-1.24-10.97,4.22-14.65Z"/>
  <path class="cls-3" d="M425.39,254.16c5.43-1.11,6.67,1.28,8.26,5.87,4.16,11.95-7.72,11.65-17.11,13.53-9.14,1.82-18.28,3.6-27.44,5.32-10.75,1.58-11.97-14.1-3.96-16.2,13.03-3.41,26.97-5.98,40.24-8.52Z"/>
  <path class="cls-3" d="M595.51,253.89c7.44-.66,24.61,5.21,32.66,5.96,2.61.24,9.07,1.92,11.62,2.82,7.53,2.68,7.21,11.13.98,15.57-.53.17-1.05.36-1.59.49-3.47.84-43.62-7.17-46.36-9.29-1.52-1.18-1.99-3.51-1.93-5.32.12-3.94,1.73-7.62,4.63-10.23Z"/>
  <path class="cls-2" d="M425.83,695.73c22.92-1.29,50.12,8.66,58.64,31.66,5.76,15.55,5.05,34.61-1.47,49.82-6.01,14.02-16.29,20.65-29.92,25.97-4.27,1.36-8.65,2.35-13.09,2.97-11.04,1.54-34.29,2.76-44.47-3.76-1.98-1.27-1.62-17.46-1.62-20.78v-26.2c.01-8.99-1.63-44.5,1.53-52.59,2.01-5.17,23.56-6.52,30.4-7.09ZM423.13,782.88c10.6.96,16.09.95,25.25-5.46,18.29-17.01,12.26-60.9-20.6-57.73-1.67.17-3.25.12-4.61.92-.31,3.43-.31,7.07-.25,10.53.27,17.19-.27,34.57.21,51.74Z"/>
  <path class="cls-2" d="M222.76,695.71c4.69-.18,9.39,0,14.05.55,11.59,1.34,23.1,5.16,30.29,14.66,12.1,16,8.35,41.92-7.84,53.82-9.87,7.25-26.38,10.67-38.38,8.94v7.7c.02,4.55.53,17.88-.65,21.77-3.36,4.6-28.29,4.2-28.33-1.01-.18-30.38.01-60.91.01-91.32,0-1.51.37-6.88,1.1-7.66,5.44-5.86,23.45-6.99,29.75-7.44ZM221.04,751.97c6.37.46,11.5.85,17.19-2.89,13.46-13.11,4.99-32.4-15.49-29.81l-1.39.51c-.87,2.87-.35,27.63-.31,32.19Z"/>
  <path class="cls-2" d="M734.81,699.17l.46-.06c2.33-.26,3.45-.47,5.32,1.01,1.98,3.9.64,50.84.86,59.9.16,6.76.69,38.23-.49,43.31-2.21,3.15-10.78,2.53-14.27,2.71-8.39.45-8.94-1.72-10.66-8.72-11.04,11.14-23.3,13.87-37.26,5.98-11.09-7.54-14.31-17.11-15.61-29.88-3.11-30.51,21.23-53.14,51.14-39.61.1-5.68-1.46-24.59,1.09-28.16,3.44-4.83,13.97-5.57,19.43-6.49ZM703.04,786.38c5.52-.62,8.37-2.01,11.41-6.82.01-10.3,4.35-29.2-9.12-29.07-.83.01-1.65.03-2.48.07-4.47,1.36-7.91,3.26-9.9,7.65-4.98,11-3.21,25.34,10.08,28.18Z"/>
  <path class="cls-2" d="M527.16,728.04c22.09-3.7,42.98,11.25,46.62,33.34,3.64,22.1-11.34,42.95-33.45,46.55-22.03,3.58-42.81-11.35-46.44-33.37-3.63-22.02,11.25-42.83,33.27-46.52ZM535.97,785.58c14.31-3.92,13.75-22.67,6.36-32.44-3.98-1.96-5.17-2.54-9.76-2.52-3.87,1.05-7.39,2.57-9.15,6.4-5.22,11.41-3.41,29.19,12.56,28.56Z"/>
  <path class="cls-2" d="M311.45,727.75c4.03-.05,8.06.27,12.03.97,30.87,5.59,21.49,32.53,23.84,54.59.18,3.41,6.89,2.91,7.27,5.08,3.18,17.99-8.93,20.98-23.69,18.35-4.52-.81-7.34-4.23-9.31-7.58-11.74,9.22-25.36,11.56-38.77,4.22-7.58-5.16-11.19-14.13-9.41-23.11,1.26-6.33,5.02-11.88,10.43-15.4,10.37-6.85,24.61-6.81,36.33-4.24l-.25-7.85c-7.82-12.37-23.67-3.25-34.25-.66l-.61.14c-2.45-2.27-5.36-6.89-5.9-10.19-2.04-12.43,24.2-13.67,32.3-14.32ZM313.2,789.29c3.16-1.84,4.68-2.77,7.3-5.52-.04-2.89,0-6.07-.24-8.92-4.44-.59-8.18-1.19-12.67-.72-2.86.95-4.87,1.76-6.37,4.62-1.03,1.95-1.18,4.24-.41,6.3.82,2.13,2.51,3.8,4.65,4.61,2.69,1.04,5.06.34,7.74-.37Z"/>
  <path class="cls-2" d="M786.23,728.19c19.96-2.04,37.85,10.17,40.85,30.18,1.13,5.69.96,12.95-6.12,14.44-13.92,2.93-29.88,1.53-43.72,3.81,5.53,13.76,17.41,13.05,29.45,8.8,3.63-1.28,7.4-4.02,11.26-4.07,2.36,1,3.85,4.95,5.01,7.32,2.65,6.2,3.1,7.85-3.14,11.53-20.31,12-52.91,10.89-65.79-11.52-10.41-18.12-4.52-44.02,13.75-54.86,6.39-3.79,11.22-4.83,18.45-5.64ZM776.56,760.59c4.14-.15,9.92-.95,13.47-.92,3.68-.47,7.36-.92,11.05-1.33-1.64-8.51-4.68-12.34-13.95-11.8-7.51,2.68-8.78,6.69-10.56,14.05Z"/>
  <path class="cls-2" d="M628.26,728.64c17.06-1.9,27.22,10.17,27.66,26.04.35,12.67-.1,25.67.26,38.31.38,13.63-.14,12.48-13.53,12.94-2.19.08-10.41.59-12.52-1.93-3.66-12.5,1.87-36.28-3.04-48.11-2.77-6.66-15.33-4.97-17.48,3.28-.18,7.19.34,39.5-.7,44.24-3.15,3.73-21.8,3.44-25.93.74-2.42-6.3-.11-33.8-.88-41.64-.3-3.08-.17-26.95.42-28.63,3.54-2.98,8.32-2.91,12.69-3.32,10.22-.95,11.01-.14,12.84,9.47,6.95-6.52,10.39-9.85,20.22-11.41Z"/>
  <path class="cls-2" d="M361.63,695.64c27.09-.64,12.45,43.11-4.8,46.07l-.37-.14c-2.16-.86-2.96-.85-4.58-2.59-1.79-4.09,2.61-7.63,4.33-11.09.93-1.87,1.43-3.67,2.02-5.65-.38-.21-.76-.43-1.13-.65-12.27-7.22-10.62-23.04,4.52-25.94Z"/>
</svg>