<?xml version="1.0" encoding="UTF-8"?>
<svg id="Capa_1" data-name="Capa 1" xmlns="http://www.w3.org/2000/svg" viewBox="0 0 1024 1024">
  <defs>
    <style>
      .cls-1 {
        fill: #0090e4;
      }

      .cls-2 {
        fill: #fefefe;
      }

      .cls-3 {
        fill: #00a375;
      }
    </style>
  </defs>
  <path class="cls-1" d="M371.89,687.52c-18.2-23.96-38.9-55.22-54.25-80.46-44.11-72.52-81.9-150.06-68.66-237.17,10.24-67.35,44.99-123.97,99.02-164.95,57.27-43.24,129.39-61.94,200.46-51.97,70.22,9.49,133.81,46.46,176.8,102.8,40.71,53.11,58.29,120.4,48.76,186.64-9.76,69.24-50.2,140.79-88.16,198.63-12.45,18.97-26.09,38.87-40.26,56.51-2.97,4.74-7.16,11.58-10.57,15.8-18.43,24-37.94,47.14-58.48,69.36-13.68,14.85-27.85,30-43.63,42.65-5.98,4.8-14.31,11.39-22.44,10.31-26.27-3.48-102.56-99.17-121.39-123.91-4.41-4.21-14.52-18.85-17.2-24.24Z"/>
  <path class="cls-3" d="M371.89,687.52c30.8,13.8,55.06,9.6,85.77-2.14,49.93-19.07,99.65-49.55,154.36-24.9,13.07,5.89,26.54,16.4,31.78,30.22.85,2.23,1.42,4.49,1.8,6.84-2.97,4.74-7.16,11.58-10.57,15.8-18.43,24-37.94,47.14-58.48,69.36-13.68,14.85-27.85,30-43.63,42.65-5.98,4.8-14.31,11.39-22.44,10.31-26.27-3.48-102.56-99.17-121.39-123.91-4.41-4.21-14.52-18.85-17.2-24.24Z"/>
  <path class="cls-2" d="M371.89,687.52c30.8,13.8,55.06,9.6,85.77-2.14,49.93-19.07,99.65-49.55,154.36-24.9,13.07,5.89,26.54,16.4,31.78,30.22.85,2.23,1.42,4.49,1.8,6.84-2.97,4.74-7.16,11.58-10.57,15.8-5.64.32-12.71,1.13-17.99,3.07-10.17,3.75-20.16,10.28-31.3,10.66-3.72.06-10.37-.41-13.04-3.59-6.61-7.87-3.09-16.58,3.18-22.7,12.2-11.9,26.4-13.03,42.4-12.87-81.05-52.26-149.7,50.55-229.19,23.84-4.41-4.21-14.52-18.85-17.2-24.24Z"/>
  <path class="cls-2" d="M504.88,287.22c13.37-2.02,28.64,1.95,39.81,10.14,21.16,15.52,29.71,39.59,28.61,65.28-.26,6.17-3.52,18.15-2.79,22.91,1.28,1.53,1.64,1.45,3.54,2.06,10.2-2.36,10.39-43.1,10.74-52.31l-.75-.15-1.25-.27c-4.49-.95-7.32-1.5-8.95-6.54-1.28-3.93-5.08-11.05-3.42-14.96,4.63-3.39,34.08,2.62,38.62,5.72,1.38,3.47-3.06,15.19-4.43,18.9l-7.32.07.04,25.86c11.9,7.76,25.94,17.24,31.03,31.74,10.77,30.7,2.54,68.29,1.7,100.26-.14,5.31-.96,13.05-1.83,18.03-.78,4.58-2.09,9.05-3.9,13.32-6.33,14.74-20.33,21.9-34.33,27.57-.95,6.78-2.16,25.16-5.31,29.43-1.9,2.57-4.75,4.29-7.91,4.77-1.99-.63-3.54-1.83-3.48-4.12.96-37.93,7.55-77.7,1.7-115.49-4.52-29.2-29.75-37.24-55.18-40.19-36.1-1.13-70.26,7.94-72.8,49.71-2.18,35.82,1.99,71.25,3.51,106.95.06,1.31-1.07,1.88-1.94,2.49-15.16,1.59-13.88-22.78-15.08-33.79-36.97-15.42-38.52-28.67-41.16-66.91-1.82-26.33-5.45-53.42-1.07-79.81,3.79-22.84,16.69-32.12,34.59-43.99.13-8.57.09-17.15-.12-25.72l-7.56-.57c-1.98-5.01-3.84-13.63-4.87-18.99,6.17-2.6,29.23-7.25,36.29-6.23,8.23,1.19-.59,16.58-2.87,21.01-2.75.81-5.82,1.5-8.63,2.19.99,9.76,1.25,48.19,10.31,51.95,2.13,0,1.99-.1,3.81-1.3,1.51-3.35-.72-11.09-1.32-14.96-6.02-38.84,13.97-77.16,53.98-84.07Z"/>
  <path class="cls-1" d="M505.23,314.42c25.04-3.56,48.2,13.9,51.68,38.94,3.48,25.05-14.04,48.16-39.1,51.57-24.95,3.39-47.94-14.04-51.41-38.98-3.47-24.94,13.9-47.99,38.83-51.53Z"/>
  <path class="cls-2" d="M509.23,330.56c16-1.3,30.05,10.57,31.43,26.57,1.39,15.99-10.41,30.1-26.39,31.57-16.11,1.48-30.35-10.42-31.75-26.54-1.4-16.12,10.59-30.29,26.71-31.6Z"/>
  <path class="cls-2" d="M503.95,449.15c10.74-1,24.99-.44,34.27,5.54,15.92,10.25,14.06,32.16,14.08,48.32v35.48s.03,38.47.03,38.47c-.02,27.59,2.68,54.07-30.86,60.68-11.51,1.15-25.28.91-35.14-5.84-16.73-11.46-14.63-32.68-14.6-50.18v-40.07l-.03-40.46c.01-28.45-1.61-46.67,32.25-51.93Z"/>
  <path class="cls-2" d="M351.76,256.65c6.22-.53,40.4-1.42,46.12,2.03,3.14,1.89,2.67,12.5,2.67,16.64,8.51,1.43,17.37,1.79,25.77,3.39,13.41,2.56,11.4,18.06,11.36,28.64-4.13,1.82-7.61,3.12-11.77,1.66-1.98-1.98-1.37-1.43-2.14-4.56-.65-5.84-.96-11.75-8.57-12.52-4.58-.46-9.43-.54-14.04-.8-2.65,3.77-4.09,5.57-10.02,5.06-23.23-1.98-65.77,9.25-51.73-31.33,1.46-4.22,8.14-7.09,12.36-8.21Z"/>
  <path class="cls-2" d="M627.7,256.53c10.36.05,20.75-.16,31.11-.17,7.83-.01,15.94-.4,22.19,5.22,7.63,6.8,7.35,22.61.03,29.49-5.39,5.29-13.04,5.17-20.1,5.08-11.73-.14-23.5-.02-35.25-.46-1.68-1.28-2.72-2.99-3.97-4.72-4.21.27-16.95.53-19.9,3.11-4.2,3.67.81,11.37-4.72,15.59-16.18,3.16-12.35-19.68-7.75-26.88,3.25-5.08,26.29-6.63,32.97-7.58-.05-7.74-1.59-13.98,5.38-18.67Z"/>
  <path class="cls-2" d="M400.4,320.39c6.92-1.42,8.5,1.64,10.53,7.48,5.3,15.24-9.84,14.86-21.81,17.25-11.65,2.33-23.3,4.59-34.98,6.78-13.7,2.01-15.26-17.97-5.05-20.65,16.62-4.35,34.38-7.63,51.3-10.86Z"/>
  <path class="cls-2" d="M617.25,320.05c9.49-.85,31.38,6.64,41.63,7.6,3.33.31,11.56,2.44,14.81,3.59,9.6,3.41,9.19,14.19,1.25,19.85-.67.22-1.34.45-2.03.62-4.43,1.07-55.61-9.14-59.1-11.84-1.94-1.5-2.53-4.48-2.46-6.78.16-5.02,2.21-9.71,5.9-13.05Z"/>
</svg>